/* XPM */
static char * w3af_xpm[] = {
"32 32 985 2",
"  	c None",
". 	c #F1F4FF",
"+ 	c #F8FAFE",
"@ 	c #DBDCF9",
"# 	c #C3C5EA",
"$ 	c #8587B6",
"% 	c #7F80B8",
"& 	c #7074AB",
"* 	c #717AA8",
"= 	c #5D6D8C",
"- 	c #546B7F",
"; 	c #557185",
"> 	c #597798",
", 	c #6785BC",
"' 	c #85A1E9",
") 	c #9FBAFC",
"! 	c #B3CDFE",
"~ 	c #CEE5FE",
"{ 	c #E7F9FB",
"] 	c #F3FEF0",
"^ 	c #FAFDEA",
"/ 	c #FEFBF5",
"( 	c #FFF7FD",
"_ 	c #FFF4FF",
": 	c #FFF2FF",
"< 	c #FFF4FD",
"[ 	c #FFFCF9",
"} 	c #FFFFF2",
"| 	c #FCFFF1",
"1 	c #F7FFF6",
"2 	c #F4FFF8",
"3 	c #FCFFFF",
"4 	c #F6FDFF",
"5 	c #E3E9FC",
"6 	c #DCE3F4",
"7 	c #AFB6C9",
"8 	c #707593",
"9 	c #1D234A",
"0 	c #171B4E",
"a 	c #161D52",
"b 	c #08133D",
"c 	c #000C28",
"d 	c #001223",
"e 	c #011E31",
"f 	c #012141",
"g 	c #032157",
"h 	c #0D2D74",
"i 	c #3F60AB",
"j 	c #7494D6",
"k 	c #9AB9E4",
"l 	c #C6E1F3",
"m 	c #D0E3E5",
"n 	c #E5EFEB",
"o 	c #F9FAFB",
"p 	c #F2E9F4",
"q 	c #FAF2FB",
"r 	c #FFF8FF",
"s 	c #FFFAFD",
"t 	c #FFFDF7",
"u 	c #FFFFF3",
"v 	c #FDFFF3",
"w 	c #F7FFF8",
"x 	c #F6FFFC",
"y 	c #E1EEF7",
"z 	c #C2CFD4",
"A 	c #AEBDBE",
"B 	c #839298",
"C 	c #455462",
"D 	c #101D39",
"E 	c #07143E",
"F 	c #0A1744",
"G 	c #000E36",
"H 	c #000E29",
"I 	c #001828",
"J 	c #032336",
"K 	c #052747",
"L 	c #0A2D5F",
"M 	c #193C83",
"N 	c #234B9A",
"O 	c #3E6AB7",
"P 	c #5F8ACC",
"Q 	c #749ACB",
"R 	c #A5C2E7",
"S 	c #CCE1FB",
"T 	c #D8E4F8",
"U 	c #F1F6FC",
"V 	c #FDFDFF",
"W 	c #FEFDFD",
"X 	c #FFFEF5",
"Y 	c #FFFDF1",
"Z 	c #FFFCF1",
"` 	c #FDFCF7",
" .	c #FDFCFE",
"..	c #FDFCFF",
"+.	c #FFFFFF",
"@.	c #B9CDD1",
"#.	c #8EA3A4",
"$.	c #6D8482",
"%.	c #435A5A",
"&.	c #1D323E",
"*.	c #112642",
"=.	c #01113D",
"-.	c #000838",
";.	c #001442",
">.	c #001335",
",.	c #00162D",
"'.	c #001931",
").	c #001D42",
"!.	c #0B2D66",
"~.	c #254998",
"{.	c #2D5BB4",
"].	c #245AB6",
"^.	c #295FB6",
"/.	c #4979C7",
"(.	c #6C96D9",
"_.	c #82A5DB",
":.	c #A4BFE6",
"<.	c #D5EAF7",
"[.	c #E8F6F8",
"}.	c #F1FAF2",
"|.	c #FAFEEF",
"1.	c #FEFEEF",
"2.	c #FFFCF3",
"3.	c #FFFAFC",
"4.	c #FFFAFF",
"5.	c #FFF9FF",
"6.	c #FFFEFF",
"7.	c #96B1BB",
"8.	c #547177",
"9.	c #3C5B5D",
"0.	c #203E46",
"a.	c #0B2639",
"b.	c #0F284C",
"c.	c #031B51",
"d.	c #031653",
"e.	c #051B56",
"f.	c #020F42",
"g.	c #010D36",
"h.	c #020F37",
"i.	c #031143",
"j.	c #03185C",
"k.	c #03267E",
"l.	c #1244A7",
"m.	c #1E5AC3",
"n.	c #1F5CC8",
"o.	c #306AD2",
"p.	c #4479D9",
"q.	c #4E7CCD",
"r.	c #648DC8",
"s.	c #93B5DA",
"t.	c #BDD9E6",
"u.	c #D8EDE7",
"v.	c #EEFBEB",
"w.	c #FAFFEF",
"x.	c #FEFDF7",
"y.	c #FFFBFE",
"z.	c #FFF7FF",
"A.	c #FFF5FF",
"B.	c #FFFDFF",
"C.	c #6F8DAC",
"D.	c #143551",
"E.	c #16384E",
"F.	c #0A2D47",
"G.	c #00193E",
"H.	c #001148",
"I.	c #052069",
"J.	c #193C8E",
"K.	c #274C9D",
"L.	c #163C84",
"M.	c #0D3673",
"N.	c #133C77",
"O.	c #1A4283",
"P.	c #173C8C",
"Q.	c #0D3393",
"R.	c #04349F",
"S.	c #114CBD",
"T.	c #2261D2",
"U.	c #2764D4",
"V.	c #3B74DE",
"W.	c #497EDC",
"X.	c #4B7CCA",
"Y.	c #6390C6",
"Z.	c #90B6D4",
"`.	c #B6D5DD",
" +	c #D7EEE5",
".+	c #EBF8EA",
"++	c #F8F7F2",
"@+	c #FEF8FD",
"#+	c #FFF1FF",
"$+	c #FFFCFF",
"%+	c #7291D0",
"&+	c #0E2D67",
"*+	c #1A3E71",
"=+	c #0B2E62",
"-+	c #002160",
";+	c #021967",
">+	c #113798",
",+	c #3158C1",
"'+	c #3D65CD",
")+	c #3861BF",
"!+	c #325DAD",
"~+	c #2C56A2",
"{+	c #254D9B",
"]+	c #1F449D",
"^+	c #1C3FA6",
"/+	c #123DAE",
"(+	c #0537AA",
"_+	c #1147B5",
":+	c #2E68D1",
"<+	c #346ED1",
"[+	c #3E77D5",
"}+	c #588DE5",
"|+	c #5484D1",
"1+	c #6591C9",
"2+	c #8BB0D2",
"3+	c #B5D1DC",
"4+	c #D0E2E0",
"5+	c #E4EAE7",
"6+	c #F7F0F6",
"7+	c #FEF3FE",
"8+	c #5979D0",
"9+	c #082171",
"0+	c #0F337C",
"a+	c #021E64",
"b+	c #001B6B",
"c+	c #082B88",
"d+	c #244FBF",
"e+	c #3661D9",
"f+	c #3F6ADF",
"g+	c #426FD7",
"h+	c #3865BD",
"i+	c #1D4695",
"j+	c #082977",
"k+	c #0A2A7E",
"l+	c #2043A1",
"m+	c #274BB4",
"n+	c #163FAB",
"o+	c #0C3A9B",
"p+	c #184AA0",
"q+	c #2D62B4",
"r+	c #356BC0",
"s+	c #4074D1",
"t+	c #5383E2",
"u+	c #5681D8",
"v+	c #6E95D7",
"w+	c #94B4D9",
"x+	c #B1C8D7",
"y+	c #CBD8DA",
"z+	c #E6E8EA",
"A+	c #F8F0F9",
"B+	c #FBFAFE",
"C+	c #6181E7",
"D+	c #274AA8",
"E+	c #1E4598",
"F+	c #07307F",
"G+	c #021B71",
"H+	c #1746A8",
"I+	c #3C6CDF",
"J+	c #4270EC",
"K+	c #4473EB",
"L+	c #4170D8",
"M+	c #2D5BB0",
"N+	c #0B2C73",
"O+	c #000A4A",
"P+	c #112366",
"Q+	c #4766B1",
"R+	c #637ED5",
"S+	c #455FBA",
"T+	c #17327E",
"U+	c #072662",
"V+	c #163F79",
"W+	c #1C4B90",
"X+	c #305DBB",
"Y+	c #4C76E5",
"Z+	c #5E85F7",
"`+	c #6A8EF1",
" @	c #7696DA",
".@	c #87A1C5",
"+@	c #A3B7C2",
"@@	c #C5D1D2",
"#@	c #DDE0E5",
"$@	c #E1E3E9",
"%@	c #E6E8F2",
"&@	c #80A1FE",
"*@	c #4F74D1",
"=@	c #2C54A5",
"-@	c #002671",
";@	c #052171",
">@	c #265AB6",
",@	c #4376E3",
"'@	c #3F72E5",
")@	c #4273E3",
"!@	c #3969C9",
"~@	c #1B4691",
"{@	c #011B54",
"]@	c #000936",
"^@	c #112550",
"/@	c #4A6697",
"(@	c #7387C7",
"_@	c #5463AA",
":@	c #18235C",
"<@	c #000932",
"[@	c #06214B",
"}@	c #133B75",
"|@	c #1D459E",
"1@	c #294FC2",
"2@	c #4A6DEC",
"3@	c #5E7FF6",
"4@	c #6584DC",
"5@	c #6885BD",
"6@	c #7A94AC",
"7@	c #9CB2B7",
"8@	c #BAC8CB",
"9@	c #C2CDD0",
"0@	c #C4CCD5",
"a@	c #99B9FE",
"b@	c #7195E9",
"c@	c #325AA0",
"d@	c #001757",
"e@	c #072669",
"f@	c #3269B8",
"g@	c #4379D9",
"h@	c #3B70D7",
"i@	c #4275D9",
"j@	c #2C5CAF",
"k@	c #082C68",
"l@	c #000F35",
"m@	c #000B22",
"n@	c #000F21",
"o@	c #0E2238",
"p@	c #1D2A4F",
"q@	c #121B4A",
"r@	c #051138",
"s@	c #000E2D",
"t@	c #02193D",
"u@	c #0B2B60",
"v@	c #092A7C",
"w@	c #102F9C",
"x@	c #3152CD",
"y@	c #4C6DE7",
"z@	c #5A7ADF",
"A@	c #5877C1",
"B@	c #607EA7",
"C@	c #7D99AB",
"D@	c #98B1B7",
"E@	c #A1B5B8",
"F@	c #ABB7C2",
"G@	c #94B3FE",
"H@	c #7093DD",
"I@	c #284E89",
"J@	c #001045",
"K@	c #0A356D",
"L@	c #487FC3",
"M@	c #558CE4",
"N@	c #4D82E3",
"O@	c #4779D8",
"P@	c #2E5EAC",
"Q@	c #05265B",
"R@	c #000C2A",
"S@	c #000E1C",
"T@	c #00090F",
"U@	c #01080F",
"V@	c #071021",
"W@	c #060F29",
"X@	c #000726",
"Y@	c #000427",
"Z@	c #02113D",
"`@	c #18346D",
" #	c #0F2C77",
".#	c #011872",
"+#	c #112F94",
"@#	c #3153BD",
"##	c #4E6FD4",
"$#	c #5475CB",
"%#	c #5A7AB7",
"&#	c #708FB4",
"*#	c #84A3B4",
"=#	c #8BA6AD",
"-#	c #A7B8C9",
";#	c #A1BDFE",
">#	c #7899DC",
",#	c #2C5284",
"'#	c #001744",
")#	c #0B3E70",
"!#	c #4E84C4",
"~#	c #5B90E5",
"{#	c #598DED",
"]#	c #5A8AEA",
"^#	c #416CBE",
"/#	c #112E67",
"(#	c #000729",
"_#	c #000717",
":#	c #020A10",
"<#	c #091416",
"[#	c #101F21",
"}#	c #091821",
"|#	c #010925",
"1#	c #000336",
"2#	c #0A195A",
"3#	c #29448B",
"4#	c #1C3C80",
"5#	c #04195B",
"6#	c #00195E",
"7#	c #143886",
"8#	c #385BB6",
"9#	c #4C6ECB",
"0#	c #5A7ACC",
"a#	c #6D8DCA",
"b#	c #7A9CBD",
"c#	c #7F9EAF",
"d#	c #AABDD2",
"e#	c #ADC6FE",
"f#	c #82A0E2",
"g#	c #365A8B",
"h#	c #001A46",
"i#	c #0B3A6C",
"j#	c #4F83C5",
"k#	c #6496EE",
"l#	c #6595F6",
"m#	c #6996FA",
"n#	c #5279D6",
"o#	c #244085",
"p#	c #081645",
"q#	c #08122E",
"r#	c #111B2B",
"s#	c #1B242D",
"t#	c #132421",
"u#	c #031816",
"v#	c #000A29",
"w#	c #020C51",
"x#	c #172A84",
"y#	c #284199",
"z#	c #143473",
"A#	c #031B45",
"B#	c #00163A",
"C#	c #052858",
"D#	c #204493",
"E#	c #4162C4",
"F#	c #5B7ADE",
"G#	c #6A8ADD",
"H#	c #6A8DBD",
"I#	c #6686A3",
"J#	c #97ACC6",
"K#	c #B2C9FE",
"L#	c #8AA6E5",
"M#	c #406192",
"N#	c #0C3065",
"O#	c #5788CD",
"P#	c #78A7FF",
"Q#	c #76A2FF",
"R#	c #7BA3FE",
"S#	c #7194EF",
"T#	c #4B68B8",
"U#	c #1C326E",
"V#	c #0B1641",
"W#	c #131738",
"X#	c #151A33",
"Y#	c #0E1B21",
"Z#	c #04171A",
"`#	c #000F37",
" $	c #16287C",
".$	c #354CB5",
"+$	c #233E9F",
"@$	c #06245F",
"#$	c #001B35",
"$$	c #001926",
"%$	c #001C37",
"&$	c #0E2F71",
"*$	c #3756B5",
"=$	c #5B78E4",
"-$	c #617FE0",
";$	c #486DAD",
">$	c #34557E",
",$	c #768BAA",
"'$	c #BED5FD",
")$	c #9EB7E6",
"!$	c #5C79A4",
"~$	c #041E48",
"{$	c #0B2153",
"]$	c #547FBE",
"^$	c #81ACF9",
"/$	c #7DA5FA",
"($	c #88ACFD",
"_$	c #8EB0FD",
":$	c #809DE8",
"<$	c #5369AE",
"[$	c #24326B",
"}$	c #0C1447",
"|$	c #040C3B",
"1$	c #020F34",
"2$	c #0A1D41",
"3$	c #213974",
"4$	c #425CB1",
"5$	c #445FBC",
"6$	c #193488",
"7$	c #021953",
"8$	c #001737",
"9$	c #001026",
"0$	c #00122F",
"a$	c #09215A",
"b$	c #2D4696",
"c$	c #556ECE",
"d$	c #4664C3",
"e$	c #1D398A",
"f$	c #0E2F6B",
"g$	c #5E7092",
"h$	c #D2E6FD",
"i$	c #B0C6E8",
"j$	c #7992B7",
"k$	c #0B254E",
"l$	c #081445",
"m$	c #4468A2",
"n$	c #83A8EC",
"o$	c #83A8F3",
"p$	c #89AEFB",
"q$	c #92B5FD",
"r$	c #9BBBFE",
"s$	c #95B0F1",
"t$	c #7A91CF",
"u$	c #5C6FAE",
"v$	c #4C5F9D",
"w$	c #4B64A3",
"x$	c #5371B6",
"y$	c #5F7ECA",
"z$	c #5574C2",
"A$	c #284891",
"B$	c #062364",
"C$	c #00184C",
"D$	c #000B35",
"E$	c #020B2E",
"F$	c #010A30",
"G$	c #051444",
"H$	c #253774",
"I$	c #4157A2",
"J$	c #1B3A8C",
"K$	c #153289",
"L$	c #4C6CB3",
"M$	c #5E6E8F",
"N$	c #EAF7FF",
"O$	c #C1D0F6",
"P$	c #92A4D0",
"Q$	c #182B5C",
"R$	c #041048",
"S$	c #2A4A88",
"T$	c #7D9FE2",
"U$	c #8FB5F7",
"V$	c #8CB4F9",
"W$	c #95BEFD",
"X$	c #9FC6FF",
"Y$	c #A2C7FF",
"Z$	c #9FC1FC",
"`$	c #99BAF4",
" %	c #95B6EF",
".%	c #89ADEE",
"+%	c #749CE5",
"@%	c #5A84CE",
"#%	c #315AA0",
"$%	c #0C2D69",
"%%	c #001A4E",
"&%	c #001C46",
"*%	c #001235",
"=%	c #021331",
"-%	c #010B28",
";%	c #000E2F",
">%	c #172953",
",%	c #294177",
"'%	c #143274",
")%	c #4F73C1",
"!%	c #A2C3FA",
"~%	c #ABBCCE",
"{%	c #F1F6FF",
"]%	c #D4DBFE",
"^%	c #B4BEEC",
"/%	c #3F4D80",
"(%	c #05164E",
"_%	c #142F6D",
":%	c #6486C8",
"<%	c #8FB6F8",
"[%	c #92BCFC",
"}%	c #9BC9FF",
"|%	c #9FCEFF",
"1%	c #9DCCFF",
"2%	c #9BC9FD",
"3%	c #93C1F6",
"4%	c #83B1E8",
"5%	c #6FA0DF",
"6%	c #5589D0",
"7%	c #3267AE",
"8%	c #104385",
"9%	c #01255E",
"0%	c #001C4B",
"a%	c #03244B",
"b%	c #0D2C4A",
"c%	c #041B33",
"d%	c #03162B",
"e%	c #05152F",
"f%	c #0A1D3D",
"g%	c #1D3561",
"h%	c #314E86",
"i%	c #89ACEB",
"j%	c #99BAE9",
"k%	c #E6F7FE",
"l%	c #F8F9FF",
"m%	c #EBEEFF",
"n%	c #D2D8F6",
"o%	c #7F8BAF",
"p%	c #263965",
"q%	c #132D60",
"r%	c #2D4F8A",
"s%	c #5E85C6",
"t%	c #86B2F4",
"u%	c #95C6FF",
"v%	c #9ED1FF",
"w%	c #9ED2FF",
"x%	c #98CEFF",
"y%	c #84B9F6",
"z%	c #6096DC",
"A%	c #427AC6",
"B%	c #2964B5",
"C%	c #114696",
"D%	c #042F7A",
"E%	c #002C6E",
"F%	c #06326B",
"G%	c #0B3564",
"H%	c #0F345A",
"I%	c #092341",
"J%	c #041936",
"K%	c #041635",
"L%	c #0C1F44",
"M%	c #152C5B",
"N%	c #34508A",
"O%	c #94B6F5",
"P%	c #8BAAE1",
"Q%	c #DBEDFD",
"R%	c #FEFDF9",
"S%	c #F9FAF9",
"T%	c #E2E7EF",
"U%	c #BEC8D9",
"V%	c #6B7B97",
"W%	c #3F577D",
"X%	c #0F2E5F",
"Y%	c #1A3F7A",
"Z%	c #3B65A8",
"`%	c #5D8BD1",
" &	c #70A3E5",
".&	c #699DE2",
"+&	c #578CD6",
"@&	c #4177C7",
"#&	c #2960B5",
"$&	c #14459D",
"%&	c #063791",
"&&	c #01368D",
"*&	c #002F81",
"=&	c #093C87",
"-&	c #1C4F92",
";&	c #204C85",
">&	c #163A69",
",&	c #163159",
"'&	c #081D42",
")&	c #011038",
"!&	c #10214F",
"~&	c #0F255C",
"{&	c #375193",
"]&	c #95B4F6",
"^&	c #98B5F4",
"/&	c #DCEFFE",
"(&	c #FEFDEA",
"_&	c #F9FBEB",
":&	c #E9EEE6",
"<&	c #DDE7E8",
"[&	c #B0BFCD",
"}&	c #899DB7",
"|&	c #3E597E",
"1&	c #234375",
"2&	c #0E3270",
"3&	c #1A4288",
"4&	c #1F4A98",
"5&	c #194799",
"6&	c #134197",
"7&	c #0C3B93",
"8&	c #053289",
"9&	c #0D378E",
"0&	c #17459C",
"a&	c #0F4196",
"b&	c #033484",
"c&	c #073680",
"d&	c #144083",
"e&	c #1C427C",
"f&	c #274678",
"g&	c #374F7B",
"h&	c #243660",
"i&	c #0A1845",
"j&	c #0F2053",
"k&	c #0C215F",
"l&	c #5974BB",
"m&	c #9FBEFA",
"n&	c #95B4FC",
"o&	c #D8ECFF",
"p&	c #FFFEEC",
"q&	c #FDFDEE",
"r&	c #F5F7EE",
"s&	c #E4ECEA",
"t&	c #D8E4EC",
"u&	c #C2D2E5",
"v&	c #8EA3C1",
"w&	c #768FB8",
"x&	c #607BAF",
"y&	c #5473AD",
"z&	c #3D5F9F",
"A&	c #23468A",
"B&	c #163980",
"C&	c #1A3E86",
"D&	c #274B92",
"E&	c #2A4E95",
"F&	c #173D83",
"G&	c #072569",
"H&	c #0A2A6B",
"I&	c #234884",
"J&	c #2D4F86",
"K&	c #314F7E",
"L&	c #526B95",
"M&	c #6D80A5",
"N&	c #4F5F83",
"O&	c #202E56",
"P&	c #172859",
"Q&	c #0A1F5A",
"R&	c #6985CB",
"S&	c #9BBEFC",
"T&	c #99BBFE",
"U&	c #CFE5FF",
"V&	c #FFFEFB",
"W&	c #FEFDFB",
"X&	c #FBFBFC",
"Y&	c #F1F6F9",
"Z&	c #EAF1FC",
"`&	c #DDE7FA",
" *	c #C8D5EF",
".*	c #B9CAE9",
"+*	c #AABCDF",
"@*	c #A1B5DA",
"#*	c #94A8CF",
"$*	c #879CC2",
"%*	c #8095BB",
"&*	c #8196BA",
"**	c #859BBF",
"=*	c #849BBE",
"-*	c #7C92B5",
";*	c #768AAC",
">*	c #788FB0",
",*	c #829BBA",
"'*	c #869DB8",
")*	c #889CB2",
"!*	c #94A5B8",
"~*	c #9DABBB",
"{*	c #768394",
"]*	c #36445B",
"^*	c #1C2F4E",
"/*	c #0C2550",
"(*	c #7C9DD3",
"_*	c #93BCF9",
":*	c #B1D8FF",
"<*	c #BAD3FF",
"[*	c #FDFEFF",
"}*	c #FCFDFF",
"|*	c #FAFCFF",
"1*	c #F6F9FF",
"2*	c #F1F5FF",
"3*	c #E7ECFE",
"4*	c #DCE3F8",
"5*	c #D1DAEF",
"6*	c #C4CDE1",
"7*	c #BEC7DA",
"8*	c #B7C0D1",
"9*	c #B2BBC9",
"0*	c #B1B8C3",
"a*	c #AFB7BF",
"b*	c #ADB5BB",
"c*	c #AEB6BC",
"d*	c #ADB6BD",
"e*	c #ABB7BE",
"f*	c #ABB8BE",
"g*	c #ABB8BC",
"h*	c #ACB8BA",
"i*	c #AEB7B8",
"j*	c #AEB6B8",
"k*	c #939BA0",
"l*	c #54606A",
"m*	c #293B4E",
"n*	c #1A3555",
"o*	c #89ADD9",
"p*	c #99C5FC",
"q*	c #A5CFFF",
"r*	c #8DA7D9",
"s*	c #FBFFFF",
"t*	c #FAFDFF",
"u*	c #F8FCFF",
"v*	c #F5F9FF",
"w*	c #F0F2FE",
"x*	c #E8EBF8",
"y*	c #E2E4EF",
"z*	c #D9DAE4",
"A*	c #D2D2DA",
"B*	c #CAC9CF",
"C*	c #C5C2C5",
"D*	c #C2BFBF",
"E*	c #C0BDB9",
"F*	c #C0BBB6",
"G*	c #C0BBB5",
"H*	c #C1BBB5",
"I*	c #BFBBB7",
"J*	c #BCBCB8",
"K*	c #BBBDB9",
"L*	c #BBBDBA",
"M*	c #BCBDBA",
"N*	c #B8B8B8",
"O*	c #AEB0B3",
"P*	c #757D88",
"Q*	c #36455A",
"R*	c #263F60",
"S*	c #81A5D0",
"T*	c #94C0F8",
"U*	c #77A2D7",
"V*	c #617EA8",
"W*	c #FBFFFD",
"X*	c #FAFFFD",
"Y*	c #FBFEFF",
"Z*	c #F9FAFD",
"`*	c #F4F4F8",
" =	c #F1EFF3",
".=	c #ECE8EC",
"+=	c #E5E0E3",
"@=	c #DCD6D8",
"#=	c #D8CFCF",
"$=	c #D5CCCA",
"%=	c #D4CAC8",
"&=	c #D4CAC6",
"*=	c #D4C8C3",
"==	c #D5C8C2",
"-=	c #D3C9C3",
";=	c #D1C9C5",
">=	c #CFCAC7",
",=	c #CECAC8",
"'=	c #CECAC9",
")=	c #CFC9CA",
"!=	c #CAC4C9",
"~=	c #C7C4CD",
"{=	c #9193A4",
"]=	c #414C65",
"^=	c #283D63",
"/=	c #607FB0",
"(=	c #749CD9",
"_=	c #4069A1",
":=	c #5F7DA3",
"<=	c #FCFFEF",
"[=	c #FBFFF2",
"}=	c #FCFFF5",
"|=	c #FEFFF8",
"1=	c #FEFEF9",
"2=	c #FCFCF9",
"3=	c #FAF9F8",
"4=	c #F8F3F6",
"5=	c #F2ECF0",
"6=	c #EBE4EB",
"7=	c #E8DFE7",
"8=	c #E7DDE5",
"9=	c #E7DDE4",
"0=	c #E7DDE3",
"a=	c #E6DBE0",
"b=	c #E6DADE",
"c=	c #E5DAE0",
"d=	c #E3DBE1",
"e=	c #E1DCE3",
"f=	c #E1DBE4",
"g=	c #E2DBE4",
"h=	c #E2DAE5",
"i=	c #E3DCE9",
"j=	c #DED6E9",
"k=	c #AAA7BF",
"l=	c #515778",
"m=	c #233361",
"n=	c #314B84",
"o=	c #4164A7",
"p=	c #183D78",
"q=	c #58759A",
"r=	c #FEFFEF",
"s=	c #FDFFF0",
"t=	c #FFFFF6",
"u=	c #FFFFF8",
"v=	c #FFFFFA",
"w=	c #FFFDFC",
"x=	c #FEFAFC",
"y=	c #FAF5F9",
"z=	c #F6F1F7",
"A=	c #F3F0F6",
"B=	c #F3EFF7",
"C=	c #F4F0F7",
"D=	c #F3EFF4",
"E=	c #F3EDF3",
"F=	c #F2EDF3",
"G=	c #F0EDF5",
"H=	c #EFEEF6",
"I=	c #EFEDF7",
"J=	c #F0EDF7",
"K=	c #F2ECF6",
"L=	c #F6EEFB",
"M=	c #EAE3F3",
"N=	c #BFBBD1",
"O=	c #676987",
"P=	c #1D2852",
"Q=	c #0B1F54",
"R=	c #0E2C69",
"S=	c #03215B",
"T=	c #5F78A1",
"U=	c #FFFFFE",
"V=	c #FDFDFE",
"W=	c #FFFDFE",
"X=	c #FFFEFE",
"Y=	c #FEFEFE",
"Z=	c #FCFCFA",
"`=	c #F9FBF7",
" -	c #F8FDF7",
".-	c #F9FEF7",
"+-	c #F7FEF6",
"@-	c #F5FEF5",
"#-	c #F5FDF5",
"$-	c #F6FCF5",
"%-	c #F5FCF7",
"&-	c #F4FCF9",
"*-	c #F4FCFA",
"=-	c #F5FBFA",
"--	c #F7FAF9",
";-	c #FAF9F7",
">-	c #FBF8F6",
",-	c #F2EEEE",
"'-	c #D9D7DD",
")-	c #828592",
"!-	c #1D283E",
"~-	c #021131",
"{-	c #010C35",
"]-	c #001C49",
"^-	c #6178A4",
"/-	c #FDFAFF",
"(-	c #FEFBFF",
"_-	c #FEFEFF",
":-	c #FDFEFE",
"<-	c #FEFFFE",
"[-	c #FDFFFC",
"}-	c #FBFFF9",
"|-	c #FBFFF7",
"1-	c #FAFFF6",
"2-	c #F9FFF5",
"3-	c #F7FFF4",
"4-	c #F6FFF5",
"5-	c #F7FFF7",
"6-	c #F6FFF8",
"7-	c #F6FFFA",
"8-	c #F7FFFB",
"9-	c #F8FFFA",
"0-	c #FBFFF8",
"a-	c #FDFEF7",
"b-	c #FEFCF4",
"c-	c #FCF9F2",
"d-	c #F3F3EF",
"e-	c #9FA2A4",
"f-	c #28323B",
"g-	c #09192D",
"h-	c #010623",
"i-	c #0D2346",
"j-	c #98ABD1",
"k-	c #FEFFFD",
"l-	c #FEFFFC",
"m-	c #FEFFFB",
"n-	c #FDFFFB",
"o-	c #FCFFFB",
"p-	c #FBFFFB",
"q-	c #FDFFFF",
"r-	c #FEFFFF",
"s-	c #FFFFFB",
"t-	c #FFFEF9",
"u-	c #E5E8E9",
"v-	c #B0B7BF",
"w-	c #9199AB",
"x-	c #99A3BD",
"y-	c #A9B4D1",
"z-	c #E8F3FC",
". . + @ # $ % & * = - ; > , ' ) ! ~ { ] ^ / ( _ : < [ } | 1 2 3 ",
"4 5 6 7 8 9 0 a b c d e f g h i j k l m n o p q r s t u v w x 3 ",
"y z A B C D E F G H I J K L M N O P Q R S T U V W X Y Z `  ...+.",
"@.#.$.%.&.*.=.-.;.>.,.'.).!.~.{.].^./.(._.:.<.[.}.|.1.2.3.4.5.6.",
"7.8.9.0.a.b.c.d.e.f.g.h.i.j.k.l.m.n.o.p.q.r.s.t.u.v.w.x.y.z.A.B.",
"C.D.E.F.G.H.I.J.K.L.M.N.O.P.Q.R.S.T.U.V.W.X.Y.Z.`. +.+++@+_ #+$+",
"%+&+*+=+-+;+>+,+'+)+!+~+{+]+^+/+(+_+:+<+[+}+|+1+2+3+4+5+6+7+#+$+",
"8+9+0+a+b+c+d+e+f+g+h+i+j+k+l+m+n+o+p+q+r+s+t+u+v+w+x+y+z+A+q B+",
"C+D+E+F+G+H+I+J+K+L+M+N+O+P+Q+R+S+T+U+V+W+X+Y+Z+`+ @.@+@@@#@$@%@",
"&@*@=@-@;@>@,@'@)@!@~@{@]@^@/@(@_@:@<@[@}@|@1@2@3@4@5@6@7@8@9@0@",
"a@b@c@d@e@f@g@h@i@j@k@l@m@n@o@p@q@r@s@t@u@v@w@x@y@z@A@B@C@D@E@F@",
"G@H@I@J@K@L@M@N@O@P@Q@R@S@T@U@V@W@X@Y@Z@`@ #.#+#@###$#%#&#*#=#-#",
";#>#,#'#)#!#~#{#]#^#/#(#_#:#<#[#}#|#1#2#3#4#5#6#7#8#9#0#a#b#c#d#",
"e#f#g#h#i#j#k#l#m#n#o#p#q#r#s#t#u#v#w#x#y#z#A#B#C#D#E#F#G#H#I#J#",
"K#L#M#'#N#O#P#Q#R#S#T#U#V#W#X#Y#Z#`# $.$+$@$#$$$%$&$*$=$-$;$>$,$",
"'$)$!$~${$]$^$/$($_$:$<$[$}$|$1$2$3$4$5$6$7$8$9$0$a$b$c$d$e$f$g$",
"h$i$j$k$l$m$n$o$p$q$r$s$t$u$v$w$x$y$z$A$B$C$D$E$F$G$H$I$J$K$L$M$",
"N$O$P$Q$R$S$T$U$V$W$X$Y$Z$`$ %.%+%@%#%$%%%&%*%=%-%;%>%,%'%)%!%~%",
"{%]%^%/%(%_%:%<%[%}%|%1%2%3%4%5%6%7%8%9%0%a%b%c%d%e%f%g%h%i%j%k%",
"l%m%n%o%p%q%r%s%t%u%v%w%x%y%z%A%B%C%D%E%F%G%H%I%J%K%L%M%N%O%P%Q%",
"R%S%T%U%V%W%X%Y%Z%`% &.&+&@&#&$&%&&&*&=&-&;&>&,&'&)&!&~&{&]&^&/&",
"(&_&:&<&[&}&|&1&2&3&4&5&6&7&8&9&0&a&b&c&d&e&f&g&h&i&j&k&l&m&n&o&",
"p&q&r&s&t&u&v&w&x&y&z&A&B&C&D&E&F&G&H&I&J&K&L&M&N&O&P&Q&R&S&T&U&",
"V&W&X&Y&Z&`& *.*+*@*#*$*%*&***=*-*;*>*,*'*)*!*~*{*]*^*/*(*_*:*<*",
"[*}*|*1*2*3*4*5*6*7*8*9*0*a*b*b*c*d*e*f*g*h*i*j*k*l*m*n*o*p*q*r*",
"s*s*t*u*v*w*x*y*z*A*B*C*D*E*F*G*H*I*J*K*L*K*M*N*O*P*Q*R*S*T*U*V*",
"W*W*X*s*Y*Z*`* =.=+=@=#=$=%=&=*===-=;=>=,='=)=!=~={=]=^=/=(=_=:=",
"<=| [=}=|=1=2=3=4=5=6=7=8=9=0=a=b=c=d=e=f=g=h=i=j=k=l=m=n=o=p=q=",
"r=r=s=v t=u=v=w=x=y=z=A=B=C=C=D=E=F=G=H=I=J=K=L=M=N=O=P=Q=R=S=T=",
"U=U=V=V=W=X=U=Y=Y=Z=`= -.-+-@-#-$-%-&-*-=---;->-,-'-)-!-~-{-]-^-",
"B.B./-/-(-B._-:-<-[-}-|-1-2-3-4-5-6-7-8-9-0-a-b-c-d-e-f-g-h-i-j-",
"+.+.+.+.+.+.+.+.+.U=k-l-m-n-o-o-p-W*3 q-r-U=s-1=t-v=u-v-w-x-y-z-"};
