/* XPM */
static char *w_af_gui_icon[] = {
/* columns rows colors chars-per-pixel */
"32 32 144 2",
"   c black",
".  c #020202",
"X  c gray1",
"o  c #040404",
"O  c gray2",
"+  c #060606",
"@  c gray3",
"#  c #0C0C0C",
"$  c #0E0E0E",
"%  c #111111",
"&  c #131313",
"*  c gray8",
"=  c #151515",
"-  c #181818",
";  c #1B1B1B",
":  c gray11",
">  c #1D1D1D",
",  c #1E1E1E",
"<  c #202020",
"1  c #232323",
"2  c #252525",
"3  c gray15",
"4  c #272727",
"5  c #2A2A2A",
"6  c #2C2C2C",
"7  c #2F2F2F",
"8  c gray19",
"9  c gray20",
"0  c #343434",
"q  c #353535",
"w  c #373737",
"e  c #393939",
"r  c #3A3A3A",
"t  c #3E3E3E",
"y  c #414141",
"u  c #444444",
"i  c gray27",
"p  c #464646",
"a  c #494949",
"s  c gray29",
"d  c #4B4B4B",
"f  c #4E4E4E",
"g  c gray31",
"h  c #505050",
"j  c #515151",
"k  c gray32",
"l  c gray33",
"z  c #555555",
"x  c #565656",
"c  c #5A5A5A",
"v  c gray36",
"b  c #5D5D5D",
"n  c #5F5F5F",
"m  c #626262",
"M  c #646464",
"N  c gray40",
"B  c #686868",
"V  c #6C6C6C",
"C  c gray43",
"Z  c gray44",
"A  c gray45",
"S  c #767676",
"D  c gray47",
"F  c #7C7C7C",
"G  c gray49",
"H  c #7F7F7F",
"J  c #818181",
"K  c gray51",
"L  c #868686",
"P  c gray53",
"I  c #888888",
"U  c gray54",
"Y  c #8B8B8B",
"T  c #909090",
"R  c gray57",
"E  c #929292",
"W  c gray59",
"Q  c gray60",
"!  c #9A9A9A",
"~  c gray61",
"^  c #9D9D9D",
"/  c gray63",
"(  c #A4A4A4",
")  c #A9A9A9",
"_  c gray68",
"`  c #AEAEAE",
"'  c gray69",
"]  c #B1B1B1",
"[  c gray70",
"{  c #B4B4B4",
"}  c #B6B6B6",
"|  c #B7B7B7",
" . c gray72",
".. c gray73",
"X. c #BBBBBB",
"o. c #BCBCBC",
"O. c #C0C0C0",
"+. c gray77",
"@. c #C5C5C5",
"#. c #C6C6C6",
"$. c #C8C8C8",
"%. c gray79",
"&. c #CACACA",
"*. c gray80",
"=. c #CDCDCD",
"-. c #CECECE",
";. c gray81",
":. c gray82",
">. c #D2D2D2",
",. c LightGray",
"<. c gray83",
"1. c #D7D7D7",
"2. c #D8D8D8",
"3. c #DADADA",
"4. c gainsboro",
"5. c #DDDDDD",
"6. c gray87",
"7. c #DFDFDF",
"8. c gray88",
"9. c #E1E1E1",
"0. c #E2E2E2",
"q. c #E4E4E4",
"w. c gray90",
"e. c #E6E6E6",
"r. c #E7E7E7",
"t. c gray91",
"y. c #ECECEC",
"u. c #EEEEEE",
"i. c #EFEFEF",
"p. c gray94",
"a. c #F1F1F1",
"s. c gray95",
"d. c #F3F3F3",
"f. c #F4F4F4",
"g. c gray96",
"h. c #F6F6F6",
"j. c gray97",
"k. c #F8F8F8",
"l. c gray98",
"z. c #FBFBFB",
"x. c gray99",
"c. c #FDFDFD",
"v. c #FEFEFE",
"b. c gray100",
/* pixels */
"b.b.b.b.b.b.b.b.b.b.b.b.b.b.b.b.b.b.b.b.b.b.b.b.b.b.b.b.b.b.b.b.",
"b.b.b.b.b.b.b.b.b.b.b.b.b.b.b.b.b.b.b.b.b.b.b.b.b.b.b.b.b.b.b.b.",
"b.b.b.b.b.b.b.b.b.b.b.b.b.b.b.b.b.b.b.b.b.b.b.b.b.b.b.b.b.b.b.b.",
"b.b.b.b.b.b.b.b.b.b.b.0.A 5 &     X 9 H a.b.b.b.b.b.b.b.b.b.b.b.",
"b.b.b.b.b.b.b.b.b.[ v F <.b.b.b.b.b.&.Z   # >.b.b.b.b.b.b.b.b.b.",
"b.b.b.V = b.b.j.K 1.b.b.b.b.b.b.b.b.b.b.b.X.  t b.b.b.b.b.b.b.b.",
"b.b.b./ g < b.l.b.b.b.b.b.b.b.b.b.b.b.b.b.b.b.i   b.b.b.b.b.b.b.",
"b.b.b.z.2 Y @ b.b.b.b.b.b.b.b.b.b.b.b.b.b.b.b.b.U   b.b.b.b.b.b.",
"b.b.b.b.. c.,   b.b.b.b.b.b.b.b.b.b.b.b.b.b.b.b.b.Y + b.b.b.b.b.",
"b.b.b.b.E * b.X   ' b.b.b.b.b.b.b.b.b.b.b.b.b.b.b.b.w U b.b.b.b.",
"b.b.b.b.b.  -.,     > 7.b.b.b.b.b.b.b.b.b.b.b.b.b.b.b.  b.b.b.b.",
"b.b.b.b.  e.j           6 ^ i.b.b.b.b.b.b.b.b.b.b.b.b.N T b.b.b.",
"b.b.b.6 6.z     $ q             s S   b.b.b.b.b.b.b.b.t.- b.b.b.",
"b.b.b.B b.`     b.l.x              .~ b.b.b.b.b.b.b.b.b.  b.b.b.",
"b.b.f...b.    ) b.m 0.z           4 b.b.b.b.b.b.b.b.b.b.% v.b.b.",
"b.b.b.- b.Q   @.5.$.  ] k         3.b.b.b.b.b.b.b.b.b.b.8 8.b.b.",
"b.b.o.3 b.W   l b.U I P b.        k.b.b.b.b.b.b.b.b.b.b.5 r.b.b.",
"b.b.o.W b.b.P   x.=.L c.s.b 4.d e b.b.b.b.b.b.b.b.b.b.b.+ b.b.b.",
"b.b.e.G v.b.b.    O.b.q.  b.y   { b.b.b.b.b.b.b.b.b.b.b.  b.b.b.",
"b.b.b.a 9.b.b.|     :   O y.~   ,.b.b.b.b.b.b.b.b.b.b.-.w b.b.b.",
"b.b.b.f b.b.:.u.R     5 <.j.;.0 } b.b.b.b.b.b.b.b.b.b.r | b.b.b.",
"b.b.b.7.X.! b.~ ,.f.s O ; K d.J b.b.b.b.b.b.b.b.b.b.h.  b.b.b.b.",
"b.b.b.b.b.  w.b.' k b.b.b.b.b.v.b.b.b.b.b.b.b.b.b.b.  *.b.b.b.b.",
"b.b.b.b.b.M   8.b.u.=   g A 7 -.b.b.b.b.b.b.b.b.b.u c b.b.b.b.b.",
"b.b.b.b.b.b.%   +.b.b.2.    _ b.b.b.b.b.b.b.b.b.p 1 b.b.b.b.b.b.",
"b.b.b.b.b.b.b.9   u %.b.n @ b.b.b.b.b.b.b.b.p.  h b.b.b.b.b.b.b.",
"b.b.b.b.b.b.b.b.W           b.b.b.b.b.b.#.8   o.b.b.b.b.b.b.b.b.",
"b.b.b.b.b.b.b.b.b.b.G o       F J v 2   O ! b.b.b.b.b.b.b.b.b.b.",
"b.b.b.b.b.b.b.b.b.b.b.b.g.) D j h C ( v.b.b.b.b.b.b.b.b.b.b.b.b.",
"b.b.b.b.b.b.b.b.b.b.b.b.b.b.b.b.b.b.b.b.b.b.b.b.b.b.b.b.b.b.b.b.",
"b.b.b.b.b.b.b.b.b.b.b.b.b.b.b.b.b.b.b.b.b.b.b.b.b.b.b.b.b.b.b.b.",
"b.b.b.b.b.b.b.b.b.b.b.b.b.b.b.b.b.b.b.b.b.b.b.b.b.b.b.b.b.b.b.b."
};
