/* XPM */
static char *w_af[] = {
/* columns rows colors chars-per-pixel */
"48 48 2 1",
"  c black",
". c None",
/* pixels */
"................................................",
"................................................",
"..................            ..................",
"...............    .........     ...............",
"............. ..................   .............",
".. ...............................   ...........",
"..  ................................   .........",
".. . ................................   ........",
".. .. .................................  .......",
"... .  .................................  ......",
"... ..   ................................  .....",
"...  ..   ................................  ....",
"...  ...   ................................ ....",
"....  ..    ...............................  ...",
"....   ..     .............................. ...",
"....   .        ............................  ..",
"...  ..           ........................... ..",
"..  ..               ........................  .",
".. ..                         ................ .",
". ...     ...             .. ................. .",
". ....    ....            . ..................  ",
".....    ... ..           . ..................  ",
".....    .......           ...................  ",
". ....   .....  .          .................... ",
". ...    .. ..  ..        ..................... ",
"  ...    ..... ....       ..................... ",
"  .....  ... ......       ....................  ",
" ......   ...  ....  ..   ....................  ",
"........   ...... .....   ....................  ",
"........    ..... ...   ...................... .",
".. ......     ..   ...  ...................... .",
".. .......        .....  ....................  .",
".. .......      .......  ....................  .",
".. ........       .....  .................... ..",
".... .... ...       ... ....................  ..",
".... ..... ................................. ...",
"..... ..... ...............................  ...",
".....  .....   ...........................  ....",
".....   ......         ..................  .....",
"......   .......      ..................  ......",
".......    ......    ..................  .......",
"........    ......   .................  ........",
".........     ....  ................   .........",
"...........         ..............    ..........",
"............         ...........    ............",
"..............         .....      ..............",
".................              .................",
".......................   ......................"
};
