<?xml version="1.0" encoding="iso-8859-1"?>
<!DOCTYPE svg PUBLIC "-//W3C//DTD SVG 20000303 Stylable//EN"   "http://www.w3.org/TR/2000/03/WD-SVG-20000303/DTD/svg-20000303-stylable.dtd">
<!-- Generator: Adobe Illustrator 9.0, SVG Export Plug-In  -->
<svg  width="200.954pt" height="200.954pt" viewBox="0 0 200.954 200.954" xml:space="preserve">
	<g id="Layer_x0020_1" style="fill-rule:nonzero;clip-rule:nonzero;stroke:#000000;stroke-miterlimit:4;">
		<path style="stroke:none;" d="M0,100.477c0,55.403,45.074,100.477,100.477,100.477c55.403,0,100.477-45.074,100.477-100.477S155.88,0,100.477,0C45.074,0,0,45.074,0,100.477z"/>
		<radialGradient id="aigrd1" cx="69.8823" cy="62.2881" r="125.1044" fx="69.8823" fy="62.2881" gradientUnits="userSpaceOnUse">
			<stop  offset="0" style="stop-color:#FED182"/>
			<stop  offset="0.2809" style="stop-color:#FFB310"/>
			<stop  offset="1" style="stop-color:#996E04"/>
		</radialGradient>
		<path style="fill-rule:evenodd;clip-rule:evenodd;fill:url(#aigrd1);stroke:none;" d="M184.192,98.477c0,47.338-38.377,85.715-85.715,85.715c-47.339,0-85.715-38.377-85.715-85.715c0-47.339,38.376-85.715,85.715-85.715c47.338,0,85.715,38.376,85.715,85.715z"/>
	</g>
	<g id="Layer_x0020_3" style="fill-rule:nonzero;clip-rule:nonzero;stroke:#000000;stroke-miterlimit:4;">
		<path style="fill-rule:evenodd;clip-rule:evenodd;fill:#FFFFFF;stroke:none;" d="M155.202,86.78c-3.097-2.74-7.349-3.77-11.356-2.753l-40.5,10.278c-4.412,1.12-7.867,4.551-9.019,8.955s0.183,9.087,3.483,12.223l8.235,7.825c-3.946,1.979-8.366,3.068-12.984,3.068
			c-15.936,0-28.9-12.964-28.9-28.899s12.964-28.9,28.9-28.9c3.581,0,7.07,0.644,10.37,1.913c6.444,2.478,13.676-0.737,16.154-7.18c2.478-6.443-0.736-13.676-7.18-16.154c-6.175-2.375-12.683-3.579-19.344-3.579c-29.721,0-53.9,24.18-53.9,53.9
			s24.179,53.899,53.9,53.899c11.679,0,22.694-3.7,31.716-10.269l8.015,7.615c3.416,3.246,8.368,4.295,12.808,2.713c4.438-1.582,7.61-5.527,8.203-10.202l5.518-43.519c0.521-4.102-1.021-8.196-4.119-10.935z"/>
		<path style="fill-rule:evenodd;clip-rule:evenodd;stroke:none;" d="M153.202,84.78c-3.097-2.74-7.349-3.77-11.356-2.753l-40.5,10.278c-4.412,1.12-7.867,4.55-9.019,8.955s0.183,9.087,3.483,12.223l8.235,7.825c-3.946,1.979-8.366,3.068-12.984,3.068
			c-15.936,0-28.9-12.964-28.9-28.899s12.964-28.9,28.9-28.9c3.581,0,7.07,0.644,10.37,1.913c6.444,2.478,13.676-0.737,16.154-7.18c2.478-6.443-0.736-13.676-7.18-16.154c-6.175-2.375-12.683-3.579-19.344-3.579c-29.721,0-53.9,24.18-53.9,53.9
			s24.179,53.899,53.9,53.899c11.679,0,22.694-3.7,31.716-10.269l8.015,7.615c3.416,3.246,8.368,4.295,12.808,2.713c4.438-1.582,7.61-5.527,8.203-10.202l5.518-43.519c0.521-4.102-1.021-8.196-4.119-10.935z"/>
		<radialGradient id="aigrd2" cx="78.1992" cy="73.8687" r="83.2001" fx="78.1992" fy="73.8687" gradientUnits="userSpaceOnUse">
			<stop  offset="0" style="stop-color:#FFFFFF"/>
			<stop  offset="1" style="stop-color:#F0E1BD"/>
		</radialGradient>
		<path style="fill-rule:evenodd;clip-rule:evenodd;fill:url(#aigrd2);stroke:none;" d="M154.202,85.78c-3.097-2.74-7.349-3.77-11.356-2.753l-40.5,10.278c-4.412,1.12-7.867,4.55-9.019,8.955s0.183,9.087,3.483,12.223l8.235,7.825
			c-3.946,1.979-8.366,3.068-12.984,3.068c-15.936,0-28.9-12.964-28.9-28.899s12.964-28.9,28.9-28.9c3.581,0,7.07,0.644,10.37,1.913c6.444,2.478,13.676-0.737,16.154-7.18c2.478-6.443-0.736-13.676-7.18-16.154c-6.175-2.375-12.683-3.579-19.344-3.579
			c-29.721,0-53.9,24.18-53.9,53.9s24.179,53.899,53.9,53.899c11.679,0,22.694-3.7,31.716-10.269l8.015,7.615c3.416,3.246,8.368,4.295,12.808,2.713c4.438-1.582,7.61-5.527,8.203-10.202l5.518-43.519c0.521-4.102-1.021-8.196-4.119-10.935z"/>
	</g>
</svg>
