<?xml version="1.0" encoding="iso-8859-1"?>
<!DOCTYPE svg PUBLIC "-//W3C//DTD SVG 20000303 Stylable//EN"   "http://www.w3.org/TR/2000/03/WD-SVG-20000303/DTD/svg-20000303-stylable.dtd">
<!-- Generator: Adobe Illustrator 9.0, SVG Export Plug-In  -->
<svg  width="200.954pt" height="200.953pt" viewBox="0 0 200.954 200.953" xml:space="preserve">
	<g id="Layer_x0020_1" style="fill-rule:nonzero;clip-rule:nonzero;stroke:#000000;stroke-miterlimit:4;">
		<path style="stroke:none;" d="M0,100.477c0,55.403,45.074,100.477,100.477,100.477s100.477-45.073,100.477-100.477C200.954,45.074,155.88,0,100.477,0S0,45.074,0,100.477z"/>
		<radialGradient id="aigrd1" cx="70.8823" cy="63.2876" r="125.1041" fx="70.8823" fy="63.2876" gradientUnits="userSpaceOnUse">
			<stop  offset="0" style="stop-color:#FED182"/>
			<stop  offset="0.2809" style="stop-color:#FFB310"/>
			<stop  offset="1" style="stop-color:#996E04"/>
		</radialGradient>
		<path style="fill-rule:evenodd;clip-rule:evenodd;fill:url(#aigrd1);stroke:none;" d="M185.192,99.477c0,47.339-38.376,85.715-85.715,85.715c-47.339,0-85.715-38.376-85.715-85.715s38.376-85.715,85.715-85.715c47.339,0,85.715,38.376,85.715,85.715z"/>
		<path style="fill-rule:evenodd;clip-rule:evenodd;fill:#FFFFFF;stroke:none;" d="M113.852,146.197c0,0,0-34.311,0-61.459c11.498,11.498,23.03,23.029,23.03,23.029c2.441,2.439,5.641,3.66,8.84,3.66s6.396-1.221,8.838-3.66c4.881-4.883,4.881-12.797,0-17.678
			l-44.369-44.367c-0.27-0.271-0.555-0.522-0.845-0.764c-0.093-0.078-0.188-0.152-0.284-0.227c-0.205-0.162-0.416-0.316-0.629-0.463c-0.107-0.074-0.213-0.148-0.32-0.219c-0.289-0.186-0.584-0.362-0.885-0.522c-0.104-0.056-0.209-0.102-0.313-0.153
			c-0.227-0.113-0.454-0.221-0.686-0.318c-0.139-0.059-0.279-0.113-0.42-0.166c-0.209-0.08-0.421-0.154-0.635-0.223c-0.131-0.042-0.262-0.086-0.393-0.123c-0.332-0.096-0.668-0.18-1.006-0.246c-0.07-0.014-0.143-0.021-0.213-0.034
			c-0.289-0.052-0.58-0.095-0.871-0.126c-0.115-0.012-0.229-0.021-0.343-0.029c-0.265-0.021-0.53-0.035-0.798-0.039c-0.102-0.002-0.203-0.006-0.305-0.004c-0.363,0.002-0.728,0.017-1.091,0.052c-0.007,0.001-0.013,0.001-0.019,0.003
			c-0.349,0.033-0.696,0.086-1.043,0.15c-0.123,0.021-0.244,0.05-0.367,0.076c-0.229,0.049-0.458,0.105-0.686,0.168c-0.143,0.038-0.283,0.078-0.424,0.121c-0.219,0.068-0.434,0.146-0.65,0.228c-0.131,0.049-0.263,0.093-0.393,0.146
			c-0.002,0.002-0.004,0.002-0.007,0.003c-0.313,0.13-0.616,0.272-0.914,0.425c-0.13,0.066-0.257,0.141-0.384,0.213c-0.203,0.113-0.403,0.229-0.599,0.354c-0.118,0.074-0.237,0.151-0.354,0.23c-0.245,0.168-0.482,0.342-0.714,0.525
			c-0.057,0.045-0.117,0.086-0.174,0.133c-0.293,0.24-0.572,0.496-0.842,0.762c-0.024,0.023-0.051,0.043-0.076,0.068L48.146,90.09c-4.883,4.881-4.883,12.795,0,17.678c4.881,4.881,12.795,4.881,17.678,0l23.029-23.029v61.459c0,6.902,5.596,12.5,12.5,12.5
			c6.902,0,12.499-5.598,12.499-12.5z"/>
		<path style="fill-rule:evenodd;clip-rule:evenodd;stroke:none;" d="M111.853,146.197c0,0,0-34.311,0-61.459c11.497,11.498,23.029,23.029,23.029,23.029c2.441,2.439,5.641,3.66,8.84,3.66s6.396-1.221,8.838-3.66c4.881-4.883,4.881-12.797,0-17.678l-44.369-44.367
			c-0.27-0.271-0.555-0.522-0.845-0.764c-0.093-0.078-0.188-0.152-0.284-0.227c-0.205-0.162-0.416-0.316-0.629-0.463c-0.107-0.074-0.213-0.148-0.32-0.219c-0.289-0.186-0.584-0.362-0.885-0.522c-0.104-0.056-0.209-0.102-0.313-0.153
			c-0.227-0.113-0.454-0.221-0.686-0.318c-0.139-0.059-0.279-0.113-0.42-0.166c-0.209-0.08-0.421-0.154-0.635-0.223c-0.131-0.042-0.262-0.086-0.393-0.123c-0.332-0.096-0.668-0.18-1.006-0.246c-0.07-0.014-0.143-0.021-0.213-0.034
			c-0.289-0.052-0.58-0.095-0.871-0.126c-0.115-0.012-0.229-0.021-0.343-0.029c-0.265-0.021-0.53-0.035-0.798-0.039c-0.102-0.002-0.203-0.006-0.305-0.004c-0.363,0.002-0.728,0.017-1.091,0.052c-0.007,0.001-0.013,0.001-0.019,0.003
			c-0.349,0.033-0.696,0.086-1.043,0.15c-0.123,0.021-0.244,0.05-0.367,0.076c-0.229,0.049-0.458,0.105-0.686,0.168c-0.143,0.038-0.283,0.078-0.424,0.121c-0.219,0.068-0.434,0.146-0.65,0.228c-0.131,0.049-0.263,0.093-0.393,0.146
			c-0.002,0.002-0.004,0.002-0.007,0.003c-0.313,0.13-0.616,0.272-0.914,0.425c-0.13,0.066-0.257,0.141-0.384,0.213c-0.203,0.113-0.403,0.229-0.599,0.354c-0.118,0.074-0.237,0.151-0.354,0.23c-0.245,0.168-0.482,0.342-0.714,0.525
			c-0.057,0.045-0.117,0.086-0.174,0.133c-0.293,0.24-0.572,0.496-0.842,0.762c-0.024,0.023-0.051,0.043-0.076,0.068L46.146,90.09c-4.883,4.881-4.883,12.795,0,17.678c4.881,4.881,12.795,4.881,17.678,0l23.029-23.029v61.459c0,6.902,5.596,12.5,12.5,12.5
			c6.902,0,12.5-5.598,12.5-12.5z"/>
		<radialGradient id="aigrd2" cx="80.8979" cy="76.3721" r="83.9961" fx="80.8979" fy="76.3721" gradientTransform="matrix(-4.371139e-008 -1 1 -4.371139e-008 -0.0297 200.7335)" gradientUnits="userSpaceOnUse">
			<stop  offset="0" style="stop-color:#FFFFFF"/>
			<stop  offset="1" style="stop-color:#F0E1BD"/>
		</radialGradient>
		<path style="fill-rule:evenodd;clip-rule:evenodd;fill:url(#aigrd2);stroke:none;" d="M112.852,146.197c0,0,0-34.311,0-61.459c11.498,11.498,23.03,23.029,23.03,23.029c2.441,2.439,5.641,3.66,8.84,3.66s6.396-1.221,8.838-3.66c4.881-4.883,4.881-12.797,0-17.678
			l-44.369-44.367c-0.27-0.271-0.555-0.522-0.845-0.764c-0.093-0.078-0.188-0.152-0.284-0.227c-0.205-0.162-0.416-0.316-0.629-0.463c-0.107-0.074-0.213-0.148-0.32-0.219c-0.289-0.186-0.584-0.362-0.885-0.522c-0.104-0.056-0.209-0.102-0.313-0.153
			c-0.227-0.113-0.454-0.221-0.686-0.318c-0.139-0.059-0.279-0.113-0.42-0.166c-0.209-0.08-0.421-0.154-0.635-0.223c-0.131-0.042-0.262-0.086-0.393-0.123c-0.332-0.096-0.668-0.18-1.006-0.246c-0.07-0.014-0.143-0.021-0.213-0.034
			c-0.289-0.052-0.58-0.095-0.871-0.126c-0.115-0.012-0.229-0.021-0.343-0.029c-0.265-0.021-0.53-0.035-0.798-0.039c-0.102-0.002-0.203-0.006-0.305-0.004c-0.363,0.002-0.728,0.017-1.091,0.052c-0.007,0.001-0.013,0.001-0.019,0.003
			c-0.349,0.033-0.696,0.086-1.043,0.15c-0.123,0.021-0.244,0.05-0.367,0.076c-0.229,0.049-0.458,0.105-0.686,0.168c-0.143,0.038-0.283,0.078-0.424,0.121c-0.219,0.068-0.434,0.146-0.65,0.228c-0.131,0.049-0.263,0.093-0.393,0.146
			c-0.002,0.002-0.004,0.002-0.007,0.003c-0.313,0.13-0.616,0.272-0.914,0.425c-0.13,0.066-0.257,0.141-0.384,0.213c-0.203,0.113-0.403,0.229-0.599,0.354c-0.118,0.074-0.237,0.151-0.354,0.23c-0.245,0.168-0.482,0.342-0.714,0.525
			c-0.057,0.045-0.117,0.086-0.174,0.133c-0.293,0.24-0.572,0.496-0.842,0.762c-0.024,0.023-0.051,0.043-0.076,0.068L47.146,90.09c-4.883,4.881-4.883,12.795,0,17.678c4.881,4.881,12.795,4.881,17.678,0l23.029-23.029v61.459c0,6.902,5.596,12.5,12.5,12.5
			c6.902,0,12.499-5.598,12.499-12.5z"/>
	</g>
</svg>
