<?xml version="1.0" encoding="iso-8859-1"?>
<!DOCTYPE svg PUBLIC "-//W3C//DTD SVG 20000303 Stylable//EN"   "http://www.w3.org/TR/2000/03/WD-SVG-20000303/DTD/svg-20000303-stylable.dtd">
<!-- Generator: Adobe Illustrator 9.0, SVG Export Plug-In  -->
<svg  width="200.954pt" height="200.954pt" viewBox="0 0 200.954 200.954" xml:space="preserve">
	<g id="Layer_x0020_1" style="fill-rule:nonzero;clip-rule:nonzero;stroke:#000000;stroke-miterlimit:4;">
		<path style="stroke:none;" d="M0,100.477c0,55.403,45.074,100.478,100.477,100.478c55.403,0,100.477-45.074,100.477-100.478C200.954,45.074,155.88,0,100.477,0C45.074,0,0,45.074,0,100.477z"/>
		<radialGradient id="aigrd1" cx="70.8823" cy="63.2881" r="125.1047" fx="70.8823" fy="63.2881" gradientUnits="userSpaceOnUse">
			<stop  offset="0" style="stop-color:#FED182"/>
			<stop  offset="0.2809" style="stop-color:#FFB310"/>
			<stop  offset="1" style="stop-color:#996E04"/>
		</radialGradient>
		<path style="fill-rule:evenodd;clip-rule:evenodd;fill:url(#aigrd1);stroke:none;" d="M185.192,99.477c0,47.339-38.377,85.716-85.715,85.716c-47.339,0-85.715-38.377-85.715-85.716s38.376-85.715,85.715-85.715c47.338,0,85.715,38.376,85.715,85.715z"/>
		<path style="fill-rule:evenodd;clip-rule:evenodd;fill:#FFFFFF;stroke:none;" d="M160.046,84.308l-15.444-11.507V51.455h-20v6.444L106.48,44.396c-3.545-2.641-8.404-2.642-11.949,0L40.966,84.308c-3.457,2.576-4.874,7.075-3.517,11.167
			c1.356,4.091,5.182,6.853,9.492,6.853c0,0,2.764,0,4.967,0c0,12.684,0,39.103,0,39.103c0,5.522,4.477,10,10,10h77.46c5.522,0,10-4.478,10-10c0,0,0-26.419,0-39.103c2.047,0,4.704,0,4.704,0c4.311,0,8.135-2.762,9.492-6.853c0.343-1.035,0.509-2.096,0.509-3.146
			c0-3.099-1.444-6.097-4.026-8.021z"/>
		<path style="fill-rule:evenodd;clip-rule:evenodd;stroke:none;" d="M158.046,82.308l-15.444-11.507V49.455h-20v6.444L104.48,42.396c-3.545-2.641-8.404-2.642-11.949,0L38.966,82.308c-3.457,2.576-4.874,7.075-3.517,11.167c1.356,4.091,5.182,6.853,9.492,6.853
			c0,0,2.764,0,4.967,0c0,12.684,0,39.103,0,39.103c0,5.522,4.477,10,10,10h77.46c5.522,0,10-4.478,10-10c0,0,0-26.419,0-39.103c2.047,0,4.704,0,4.704,0c4.311,0,8.135-2.762,9.492-6.853c0.343-1.035,0.509-2.096,0.509-3.146c0-3.099-1.444-6.097-4.026-8.021z"/>
		<radialGradient id="aigrd2" cx="78.6089" cy="72.9092" r="85.8249" fx="78.6089" fy="72.9092" gradientUnits="userSpaceOnUse">
			<stop  offset="0" style="stop-color:#FFFFFF"/>
			<stop  offset="1" style="stop-color:#F0E1BD"/>
		</radialGradient>
		<path style="fill-rule:evenodd;clip-rule:evenodd;fill:url(#aigrd2);stroke:none;" d="M159.046,83.308l-15.444-11.507V50.455h-20v6.444L105.48,43.396c-3.545-2.641-8.404-2.642-11.949,0L39.966,83.308c-3.457,2.576-4.874,7.075-3.517,11.167
			c1.356,4.091,5.182,6.853,9.492,6.853c0,0,2.764,0,4.967,0c0,12.684,0,39.103,0,39.103c0,5.522,4.477,10,10,10h77.46c5.522,0,10-4.478,10-10c0,0,0-26.419,0-39.103c2.047,0,4.704,0,4.704,0c4.311,0,8.135-2.762,9.492-6.853c0.343-1.035,0.509-2.096,0.509-3.146
			c0-3.099-1.444-6.097-4.026-8.021z"/>
	</g>
</svg>
