<?xml version="1.0" encoding="iso-8859-1"?>
<!DOCTYPE svg PUBLIC "-//W3C//DTD SVG 20000303 Stylable//EN"   "http://www.w3.org/TR/2000/03/WD-SVG-20000303/DTD/svg-20000303-stylable.dtd">
<!-- Generator: Adobe Illustrator 9.0, SVG Export Plug-In  -->
<svg  width="200.954pt" height="200.953pt" viewBox="0 0 200.954 200.953" xml:space="preserve">
	<g id="Layer_x0020_1" style="fill-rule:nonzero;clip-rule:nonzero;stroke:#000000;stroke-miterlimit:4;">
		<path style="stroke:none;" d="M0,100.477c0,55.403,45.074,100.477,100.477,100.477s100.477-45.073,100.477-100.477C200.954,45.074,155.88,0,100.477,0S0,45.074,0,100.477z"/>
		<radialGradient id="aigrd1" cx="69.8823" cy="62.2876" r="125.1041" fx="69.8823" fy="62.2876" gradientUnits="userSpaceOnUse">
			<stop  offset="0" style="stop-color:#FED182"/>
			<stop  offset="0.2809" style="stop-color:#FFB310"/>
			<stop  offset="1" style="stop-color:#996E04"/>
		</radialGradient>
		<path style="fill-rule:evenodd;clip-rule:evenodd;fill:url(#aigrd1);stroke:none;" d="M184.192,98.477c0,47.339-38.376,85.715-85.715,85.715c-47.339,0-85.715-38.376-85.715-85.715s38.376-85.715,85.715-85.715c47.339,0,85.715,38.376,85.715,85.715z"/>
		<path style="opacity:0.7;stroke:none;" d="M143.294,84.977c0,0-34.311,0-61.459,0c11.498-11.498,23.029-23.03,23.029-23.03c2.44-2.441,3.661-5.64,3.661-8.839c0-3.199-1.221-6.398-3.661-8.839c-4.882-4.881-12.797-4.881-17.678,0L42.82,88.638
			c-0.271,0.271-0.522,0.555-0.764,0.845c-0.078,0.093-0.151,0.188-0.226,0.284c-0.162,0.206-0.316,0.416-0.463,0.63c-0.074,0.106-0.148,0.212-0.218,0.32c-0.186,0.289-0.362,0.583-0.522,0.884c-0.055,0.103-0.102,0.209-0.153,0.313
			c-0.113,0.226-0.22,0.454-0.318,0.686c-0.059,0.139-0.113,0.278-0.167,0.419c-0.08,0.209-0.153,0.421-0.222,0.635c-0.042,0.131-0.086,0.262-0.124,0.394c-0.095,0.332-0.179,0.667-0.246,1.006c-0.014,0.07-0.022,0.142-0.034,0.212
			c-0.052,0.289-0.094,0.58-0.126,0.872c-0.012,0.114-0.021,0.228-0.03,0.342c-0.021,0.265-0.034,0.531-0.038,0.797c-0.002,0.102-0.006,0.204-0.005,0.306c0.003,0.363,0.017,0.727,0.052,1.09c0,0.006,0.001,0.012,0.002,0.019c0.034,0.349,0.087,0.696,0.15,1.043
			c0.022,0.123,0.05,0.244,0.077,0.367c0.049,0.229,0.105,0.458,0.167,0.686c0.039,0.142,0.078,0.284,0.122,0.424c0.068,0.218,0.146,0.434,0.227,0.649c0.049,0.131,0.092,0.263,0.146,0.393c0.001,0.002,0.001,0.005,0.002,0.007c0.129,0.313,0.272,0.617,0.425,0.914
			c0.067,0.13,0.141,0.256,0.212,0.384c0.113,0.203,0.23,0.403,0.354,0.598c0.075,0.119,0.152,0.237,0.231,0.354c0.167,0.245,0.342,0.482,0.525,0.714c0.045,0.057,0.086,0.117,0.133,0.173c0.241,0.294,0.496,0.573,0.761,0.842c0.024,0.024,0.044,0.051,0.068,0.076
			l44.367,44.368c4.882,4.882,12.796,4.882,17.678,0s4.882-12.796,0-17.678l-23.029-23.029h61.459c6.903,0,12.5-5.597,12.5-12.5s-5.597-12.5-12.5-12.5z"/>
		<path style="fill-rule:evenodd;clip-rule:evenodd;fill:#FFFFFF;stroke:none;" d="M145.294,86.977c0,0-34.311,0-61.459,0c11.498-11.498,23.029-23.03,23.029-23.03c2.44-2.441,3.661-5.64,3.661-8.839c0-3.199-1.221-6.398-3.661-8.839
			c-4.882-4.881-12.797-4.881-17.678,0L44.82,90.638c-0.271,0.271-0.522,0.555-0.764,0.845c-0.078,0.093-0.151,0.188-0.226,0.284c-0.162,0.206-0.316,0.416-0.463,0.63c-0.074,0.106-0.148,0.212-0.218,0.32c-0.186,0.289-0.362,0.583-0.522,0.884
			c-0.055,0.103-0.102,0.209-0.153,0.313c-0.113,0.226-0.22,0.454-0.318,0.686c-0.059,0.139-0.113,0.278-0.167,0.419c-0.08,0.209-0.153,0.421-0.222,0.635c-0.042,0.131-0.086,0.262-0.124,0.394c-0.095,0.332-0.179,0.667-0.246,1.006
			c-0.014,0.07-0.022,0.142-0.034,0.212c-0.052,0.289-0.094,0.58-0.126,0.872c-0.012,0.114-0.021,0.228-0.03,0.342c-0.021,0.265-0.034,0.531-0.038,0.797c-0.002,0.102-0.006,0.204-0.005,0.306c0.003,0.363,0.017,0.727,0.052,1.09c0,0.006,0.001,0.012,0.002,0.019
			c0.034,0.349,0.087,0.696,0.15,1.043c0.022,0.123,0.05,0.244,0.077,0.367c0.049,0.229,0.105,0.458,0.167,0.686c0.039,0.142,0.078,0.284,0.122,0.424c0.068,0.218,0.146,0.434,0.227,0.649c0.049,0.131,0.092,0.263,0.146,0.393c0.001,0.002,0.001,0.005,0.002,0.007
			c0.129,0.313,0.272,0.617,0.425,0.914c0.067,0.13,0.141,0.256,0.212,0.384c0.113,0.203,0.23,0.403,0.354,0.598c0.075,0.119,0.152,0.237,0.231,0.354c0.167,0.245,0.342,0.482,0.525,0.714c0.045,0.057,0.086,0.117,0.133,0.173c0.241,0.294,0.496,0.573,0.761,0.842
			c0.024,0.024,0.044,0.051,0.068,0.076l44.367,44.368c4.882,4.882,12.796,4.882,17.678,0s4.882-12.796,0-17.678l-23.029-23.029h61.459c6.903,0,12.5-5.597,12.5-12.5s-5.597-12.5-12.5-12.5z"/>
		<radialGradient id="aigrd2" cx="79.0249" cy="74.4663" r="83.9969" fx="79.0249" fy="74.4663" gradientUnits="userSpaceOnUse">
			<stop  offset="0" style="stop-color:#FFFFFF"/>
			<stop  offset="1" style="stop-color:#F0E1BD"/>
		</radialGradient>
		<path style="fill-rule:evenodd;clip-rule:evenodd;fill:url(#aigrd2);stroke:none;" d="M144.294,85.977c0,0-34.311,0-61.459,0c11.498-11.498,23.029-23.03,23.029-23.03c2.44-2.441,3.661-5.64,3.661-8.839c0-3.199-1.221-6.398-3.661-8.839
			c-4.882-4.881-12.797-4.881-17.678,0L43.82,89.638c-0.271,0.271-0.522,0.555-0.764,0.845c-0.078,0.093-0.151,0.188-0.226,0.284c-0.162,0.206-0.316,0.416-0.463,0.63c-0.074,0.106-0.148,0.212-0.218,0.32c-0.186,0.289-0.362,0.583-0.522,0.884
			c-0.055,0.103-0.102,0.209-0.153,0.313c-0.113,0.226-0.22,0.454-0.318,0.686c-0.059,0.139-0.113,0.278-0.167,0.419c-0.08,0.209-0.153,0.421-0.222,0.635c-0.042,0.131-0.086,0.262-0.124,0.394c-0.095,0.332-0.179,0.667-0.246,1.006
			c-0.014,0.07-0.022,0.142-0.034,0.212c-0.052,0.289-0.094,0.58-0.126,0.872c-0.012,0.114-0.021,0.228-0.03,0.342c-0.021,0.265-0.034,0.531-0.038,0.797c-0.002,0.102-0.006,0.204-0.005,0.306c0.003,0.363,0.017,0.727,0.052,1.09c0,0.006,0.001,0.012,0.002,0.019
			c0.034,0.349,0.087,0.696,0.15,1.043c0.022,0.123,0.05,0.244,0.077,0.367c0.049,0.229,0.105,0.458,0.167,0.686c0.039,0.142,0.078,0.284,0.122,0.424c0.068,0.218,0.146,0.434,0.227,0.649c0.049,0.131,0.092,0.263,0.146,0.393c0.001,0.002,0.001,0.005,0.002,0.007
			c0.129,0.313,0.272,0.617,0.425,0.914c0.067,0.13,0.141,0.256,0.212,0.384c0.113,0.203,0.23,0.403,0.354,0.598c0.075,0.119,0.152,0.237,0.231,0.354c0.167,0.245,0.342,0.482,0.525,0.714c0.045,0.057,0.086,0.117,0.133,0.173c0.241,0.294,0.496,0.573,0.761,0.842
			c0.024,0.024,0.044,0.051,0.068,0.076l44.367,44.368c4.882,4.882,12.796,4.882,17.678,0s4.882-12.796,0-17.678l-23.029-23.029h61.459c6.903,0,12.5-5.597,12.5-12.5s-5.597-12.5-12.5-12.5z"/>
	</g>
</svg>
